<svg xmlns="http://www.w3.org/2000/svg" fill="none" viewBox="0 0 129 26" height="26" width="129">
<path fill="#E07A5F" d="M127.152 23.2907C127.152 23.1061 127.018 22.9849 126.723 22.9849C126.601 22.9849 126.514 22.9959 126.465 23.0097V23.5833H126.684C126.944 23.5833 127.152 23.4994 127.152 23.2907ZM127.604 24.2233C127.667 24.5305 127.704 24.6553 127.753 24.7276H127.251C127.188 24.6553 127.152 24.4707 127.091 24.2365C127.054 24.0153 126.932 23.9161 126.674 23.9161H126.452V24.7276H125.987V22.7142C126.17 22.6777 126.428 22.6522 126.761 22.6522C127.14 22.6522 127.312 22.7142 127.458 22.7996C127.569 22.8857 127.655 23.0455 127.655 23.2425C127.655 23.4615 127.483 23.6359 127.237 23.7074V23.7315C127.434 23.8059 127.545 23.954 127.604 24.2233ZM128.316 23.6906C128.316 22.7945 127.667 22.0684 126.77 22.0684C125.876 22.0684 125.216 22.7945 125.216 23.6782C125.216 24.5736 125.876 25.2851 126.783 25.2851C127.667 25.2851 128.316 24.5736 128.316 23.6906ZM128.832 23.6665C128.832 24.8071 127.935 25.7025 126.77 25.7025C125.619 25.7025 124.7 24.8071 124.7 23.6665C124.7 22.5485 125.619 21.6524 126.77 21.6524C127.935 21.6524 128.832 22.5485 128.832 23.6665Z"/>
<path fill="#E07A5F" d="M97.9419 18.7902C96.6306 18.7165 95.5345 18.0386 95.8519 16.239C95.9227 15.8369 96.1424 15.4348 96.3846 15.121C96.3715 15.1225 94.5573 15.2932 92.7636 18.6778C91.4194 21.2137 91.6311 23.9356 93.3036 24.0094C94.6354 24.0685 96.3824 22.6228 97.4172 20.2833C97.6646 19.7243 97.8171 19.2718 97.9419 18.7902ZM69.3351 18.7479C67.6326 18.8106 66.9495 17.3081 67.2385 16.1164C67.3385 15.7041 67.5348 15.2246 67.9493 14.8904C67.9245 14.8919 67.8989 14.8926 67.8719 14.8941C66.1519 15.0714 64.9296 16.8958 64.1254 18.5662C62.8739 21.1677 63.0607 23.8459 64.6253 23.9269C65.9454 23.9955 67.6216 22.6017 68.7206 20.2833C68.9016 19.9009 69.2139 19.0952 69.3351 18.7479ZM56.2485 15.3217C55.4013 15.3472 52.2597 15.4209 50.4229 15.4793C51.6795 15.9624 53.7673 17.392 54.2913 20.4883C54.392 20.2088 55.6165 16.9344 56.2485 15.3217ZM122.548 17.9758C122.744 18.4027 123.32 19.4659 123.587 20.2636C123.92 21.264 123.863 21.9004 123.817 22.2507C123.525 24.4684 122.084 25.7389 119.603 25.7805C118.208 25.8038 117.038 25.4448 116.475 24.4611C116.199 23.978 116.125 23.3956 116.562 22.825C116.764 22.5623 117.022 22.3382 117.137 22.2492C117.307 22.1193 117.447 22.0602 117.567 22.0668C117.89 22.085 117.975 22.2587 118.082 22.9279C118.21 23.7452 118.701 24.2436 119.382 24.2297C119.615 24.2254 120.446 24.1604 120.697 23.319C120.879 22.7089 120.708 21.9675 120.215 21.0699C119.58 19.9125 119.291 18.9413 119.332 18.0064C118.745 18.6939 118.141 19.4543 117.586 20.1884C115.369 23.1227 114.324 24.6778 112.625 25.3557C111.761 25.7009 110.893 25.7359 110.284 25.5659C108.755 25.1412 108.668 23.735 108.772 22.8425C108.896 21.7763 109.418 20.1826 110.352 18.1444C107.483 20.8926 104.737 24.4041 104.244 25.0237C103.769 25.6199 103.22 25.3937 102.9 25.1894C102.511 24.942 102.365 24.8435 102.002 24.5866C101.58 24.2881 101.48 24.1378 101.669 23.4029C102.115 21.6822 103.102 18.9143 104.014 16.871C102.992 17.6036 102.059 18.0137 100.911 18.2735C100.778 19.0799 100.477 19.9228 99.9903 20.7817C98.1076 24.1093 94.7734 26.2103 91.5063 25.4907C89.8855 25.1324 88.966 23.9269 88.8179 22.3324C87.6554 23.8605 86.6746 24.499 85.7164 24.9493C84.5197 25.5119 83.4812 25.3514 83.2273 25.2944C81.5985 24.9274 81.4992 23.5365 81.6598 22.4221C81.697 22.1675 81.7736 21.8427 81.8816 21.4633C80.2506 23.4715 78.6824 24.6508 77.4156 25.1492C76.7376 25.4148 75.8203 25.6119 74.93 25.444C73.7778 25.2273 73.1203 24.3545 73.2253 22.8082C73.3436 21.0546 74.6126 18.796 77.3214 15.7603C76.9544 15.5888 76.7267 15.2524 76.6267 14.9094C75.8451 15.8953 74.0346 17.1767 72.3518 17.9094C72.2132 18.9011 71.8753 19.8658 71.3448 20.8313C69.5503 24.0933 66.0045 26.2614 62.8002 25.3813C60.0118 24.615 59.3324 21.3166 61.2568 18.024C61.9529 16.8323 62.8658 15.8252 63.8765 15.0502C61.9296 15.1261 59.8899 15.1984 59.8899 15.1984C59.8899 15.1984 57.7518 20.0957 55.7909 25.1025C55.645 25.4747 55.2874 25.9417 54.5905 25.4937C54.249 25.2733 54.0483 25.1229 53.5652 24.7398C53.1806 24.4355 53.1565 24.2443 53.1551 23.8291C53.1653 20.4387 51.8153 17.3555 49.0108 16.4273C47.9257 19.0478 46.7267 22.1886 45.5336 25.2638C45.2826 25.9103 44.7433 25.8045 44.1682 25.4112C43.8034 25.1609 43.5487 24.9755 43.213 24.707C42.7 24.2991 42.6044 24.1422 42.8905 23.3139C43.1743 22.4922 44.3821 19.1682 45.6453 15.7362C45.3344 15.7457 44.323 15.7844 44.323 15.7844C43.9858 15.7953 43.7953 15.7355 43.6925 15.4706C43.5531 15.1072 43.4677 14.8766 43.3714 14.5985C43.2458 14.2395 43.2728 13.9104 43.8851 13.8629C44.1179 13.8447 45.2395 13.8082 46.3816 13.7608C48.4373 8.49053 51.1424 2.4453 51.6139 1.47327C51.9357 0.809931 52.4779 0.856634 52.9807 1.14488C53.3477 1.35505 53.8374 1.64184 54.4402 2.03226C55.0035 2.39786 55.2254 2.66568 54.8102 3.55087C54.735 3.71068 52.3283 8.73207 50.1653 13.6798C51.3665 13.6345 55.7844 13.4871 56.9636 13.4711C59.0405 8.34312 61.2152 3.49686 61.5392 2.78098C61.7457 2.32416 61.9456 1.94834 62.7294 2.35699C63.6 2.81309 63.7875 2.89409 64.3378 3.22394C64.8515 3.53335 65.0237 3.77636 64.707 4.44262C64.5516 4.76954 62.6272 8.82111 60.6547 13.3879C61.7194 13.3609 65.9118 13.2624 67.1663 13.2259C67.5567 13.2142 69.1205 13.15 69.8736 13.355C71.0565 13.6776 71.7783 14.4343 72.1731 15.5217C72.246 15.7114 72.3555 16.1361 72.3978 16.3733C74.4068 15.3392 76.3472 13.6104 77.4287 11.7043C77.6462 11.3198 77.8848 11.2833 78.3372 11.4613C78.6934 11.6007 78.6197 11.9255 78.5467 12.167C78.3759 12.7238 78.3628 13.3069 78.5934 13.698C78.8087 14.0636 79.0779 14.419 80.5958 14.5971C80.9432 14.6379 81.1044 14.7817 81.1825 15.0225C81.2613 15.267 81.3 15.456 80.9213 15.8836C78.9305 18.1298 77.6987 19.644 77.0157 21.418C76.1903 23.562 77.1186 23.4796 77.5652 23.3723C78.7977 23.0782 81.5598 20.3803 83.5228 16.9556C84.2263 15.221 85.0378 13.3368 85.7982 11.6168C84.732 11.681 84.0869 11.7255 83.9526 11.735C83.4973 11.7693 83.4104 11.535 83.3265 11.3365C83.2419 11.1388 83.1696 10.9374 83.077 10.6666C82.9843 10.3959 82.9843 10.1106 83.5615 10.0536C83.7293 10.0376 84.913 9.94054 86.6016 9.81356C87.4496 7.93008 88.1356 6.45234 88.3793 5.93641C88.7135 5.22783 89.1375 5.06655 89.7972 5.45478C90.4073 5.81308 90.5109 5.88095 91.0173 6.20788C91.4924 6.51583 91.7062 6.71432 91.3428 7.51194C91.0173 8.22563 90.7079 8.89919 90.4131 9.53991C93.8093 9.30785 97.6478 9.08016 99.8685 9.05681C100.539 9.04951 100.662 9.14073 100.802 9.44869C100.947 9.76832 101.049 9.99527 101.185 10.3215C101.337 10.6842 101.213 10.979 100.788 10.9899C96.3708 11.0994 92.4783 11.2643 89.5491 11.411C87.9152 14.9488 86.6899 17.6321 85.2895 21.4173C84.5437 23.4336 85.6778 23.1453 85.7909 23.1088C87.292 22.6221 88.7967 20.0395 90.5868 17.3796C92.6381 14.3307 95.641 12.9405 98.2163 13.5783C99.1774 13.817 99.8407 14.2132 100.341 15.0079C100.497 15.2232 100.641 15.5165 100.73 15.7836C100.835 16.123 100.923 16.5075 100.951 16.914C102.458 16.5032 103.765 15.7515 105.236 14.2862C105.55 13.9731 105.886 13.7907 106.509 14.2256C106.902 14.5 107.155 14.6671 107.516 14.9546C108.015 15.3516 108.25 15.5406 107.767 16.4302C107.494 16.9315 106.703 18.4406 105.523 21.4574C108.16 18.2159 111.421 15.0765 112.117 14.5934C112.301 14.465 112.642 14.2767 113.23 14.6452C113.621 14.8904 113.812 15.0094 114.199 15.2983C114.701 15.6713 114.881 15.9529 114.519 16.6914C114.173 17.3971 112.994 19.6061 112.357 21.7311C111.847 23.4394 112.431 23.5576 112.871 23.4248C113.468 23.2431 114.254 22.4039 115.987 20.1351C117.501 18.1524 118.846 16.5564 120.462 14.9977C120.899 14.5766 121.54 13.9972 121.968 13.6601C122.294 13.4025 122.661 13.1704 122.947 13.15C123.149 13.1361 123.27 13.1865 123.509 13.4134C123.703 13.5958 123.738 13.6316 123.864 13.7557C124.127 14.0103 124.264 14.122 124.28 14.3198C124.306 14.6503 124.144 14.7445 123.774 15.0451L123.596 15.1933C122.827 15.842 121.956 16.6951 122.548 17.9758ZM18.1929 11.573C19.3254 11.3884 20.1778 10.3047 20.0924 9.15606C20.0158 8.12201 19.2211 7.3711 18.2031 7.3711C18.0943 7.3711 17.9834 7.37985 17.8725 7.3981C16.7407 7.58199 15.8883 8.6664 15.973 9.81502C16.0489 10.8491 16.8436 11.6 17.8623 11.6C17.971 11.6 18.0819 11.5912 18.1929 11.573ZM38.2668 17.0782C38.7491 16.1806 38.5426 15.9361 37.9968 15.5545C37.5326 15.229 37.4378 15.148 37.1233 14.9415C36.5008 14.5321 36.0637 14.6905 35.5806 15.1363C33.8941 16.6929 31.4174 19.2616 29.5806 21.4545C30.673 18.4793 31.2685 17.1862 31.6684 16.2704C32.0121 15.4801 31.9231 15.2597 31.4881 14.9619C31.1853 14.7554 30.8598 14.5416 30.3373 14.2074C29.8754 13.9111 29.4996 14.0169 29.1785 14.3095C28.0481 15.3392 24.7548 18.6333 22.5203 21.1823C23.6149 18.5881 24.5701 16.3667 24.908 15.6333C25.2276 14.9386 25.2846 14.6058 24.7314 14.2023C24.314 13.8987 23.9411 13.6615 23.5463 13.42C22.8282 12.9807 22.5546 13.2777 22.2722 13.7287C22.1663 13.8965 22.0051 14.1709 21.7956 14.5102C18.6701 19.8111 16.1255 22.7462 15.1133 23.087C14.6791 23.2329 14.4719 23.13 14.3712 23.0337C14.0012 22.6783 14.331 21.6661 14.4792 21.2589C15.0126 19.7929 16.0547 17.4577 17.126 15.2203C17.5346 14.3665 17.4084 14.122 16.829 13.7053C16.4655 13.4441 16.1284 13.239 15.6927 12.9697C15.044 12.5713 14.6529 12.7793 14.2909 13.5397C13.4247 15.3582 11.2223 19.9571 10.8209 22.4776C10.5181 24.3764 11.3332 25.2171 12.4154 25.4608C13.2298 25.644 14.1617 25.4141 14.6777 25.1675C15.827 24.6194 17.4295 23.2446 19.5859 20.184C19.1685 21.2721 18.7278 22.5141 18.4913 23.3015C18.225 24.1911 18.3789 24.4224 18.908 24.7632C19.1496 24.9186 19.2619 24.9967 19.6042 25.2098C19.9574 25.4294 20.4974 25.6549 20.9732 25.0843C21.6066 24.3253 25.0182 20.1264 27.7059 17.5606C27.0907 19.2076 26.1719 21.7048 25.7399 23.2913C25.5473 23.9969 25.7115 24.2348 26.2923 24.6253L27.1644 25.1799C27.368 25.3025 27.9438 25.5776 28.4487 24.9733C28.9377 24.3881 31.7771 20.7532 34.0802 18.4691C33.2111 20.4708 32.7185 22.0135 32.5521 23.1833C32.4959 23.5752 32.2449 25.5944 34.3305 25.9125C34.9895 26.0125 36.1899 25.9133 37.0685 25.0638C37.2977 24.8427 37.3984 24.5786 37.3714 24.4224C37.3363 24.2232 37.1787 24.2064 36.9445 24.1911C36.7708 24.1808 36.5519 24.1662 36.3293 24.0517C35.5623 23.6554 35.9345 22.6951 36.1111 22.1164C36.7795 19.9264 37.6268 18.2699 38.2668 17.0782ZM14.1588 5.36283C12.6052 8.87 6.17683 23.9218 5.56968 25.2842C5.30989 25.8673 4.90123 26.1242 4.17149 25.7235C3.45122 25.3287 3.06008 25.0894 2.48869 24.7245C1.78229 24.2728 2.01434 23.7058 2.22305 23.2541C4.23277 18.9084 5.50473 15.7413 6.59497 13.3755C8.47845 9.28668 9.39867 7.39956 10.2182 5.65327C7.07223 5.98384 2.95791 6.37353 2.07272 6.49978C0.950372 6.66032 0.848203 6.26407 0.590602 5.60802C0.381894 5.0775 0.441003 5.28693 0.327892 4.95855C0.121374 4.35651 -0.0785715 3.74644 1.05692 3.62749C3.53076 3.36843 15.2491 2.33291 24.2797 2.16069C25.0357 2.14537 25.3254 2.1658 25.5786 2.71092C25.8136 3.21737 25.8435 3.20715 26.0851 3.78584C26.3274 4.36526 25.9238 4.65205 25.3874 4.67395C21.5395 4.8323 17.8083 5.09793 14.1588 5.36283Z"/>
</svg>